<svg xmlns="http://www.w3.org/2000/svg" width="1024" height="1024" viewBox="0 0 1024 1024" role="img" aria-label="PawTimer logo">
  <defs>
    <linearGradient id="pawGradient" x1="0" y1="0" x2="1" y2="1">
      <stop offset="0%" stop-color="#93C998"/>
      <stop offset="100%" stop-color="#067B78"/>
    </linearGradient>
  </defs>

  <g transform="translate(512 492) scale(1.08) translate(-512 -512)">
    <ellipse cx="446" cy="394" rx="58" ry="90" fill="url(#pawGradient)"/>
    <ellipse cx="606" cy="394" rx="58" ry="90" fill="url(#pawGradient)"/>
    <ellipse cx="298" cy="510" rx="70" ry="86" transform="rotate(-28 298 510)" fill="url(#pawGradient)"/>
    <ellipse cx="754" cy="510" rx="70" ry="86" transform="rotate(28 754 510)" fill="url(#pawGradient)"/>

    <path d="M512 550
             C454 550 401 596 357 648
             C304 710 289 775 326 821
             C367 872 449 866 512 843
             C575 866 657 872 698 821
             C735 775 720 710 667 648
             C623 596 570 550 512 550Z"
          fill="url(#pawGradient)"/>
  </g>
</svg>
