<svg width="442" height="515" viewBox="0 0 442 515" fill="none" xmlns="http://www.w3.org/2000/svg">
<path d="M74.7763 513.806C2.10628 490.127 -22.6477 382.764 26.7403 305.466C44.6453 277.442 36.3703 240.733 8.61627 225.071C-2.79973 218.629 0.266264 211.779 13.3403 214.515C64.2913 225.175 101.776 273.285 101.776 328.017C101.776 328.539 100.249 328.966 98.3833 328.966C94.5643 328.966 93.7763 327.785 93.7763 322.06C93.7763 283.323 67.5773 243.439 31.9483 227.935C18.5153 222.09 18.2173 222.147 25.1023 229.241C46.6493 251.442 49.6343 283.137 32.6573 309.466C1.84827 357.246 -0.294729 417.045 27.0693 465.368C48.3343 502.921 74.9143 514.096 138.776 512.335C156.101 511.857 198.851 511.466 233.776 511.466C304.621 511.466 300.495 512.177 294.774 500.962C288.34 488.35 282.709 486.391 254.026 486.786C241.238 486.963 230.776 486.835 230.776 486.502C230.776 486.17 232.971 482.651 235.654 478.682C242.105 469.139 249.511 454.847 254.669 441.991C278.892 381.615 254.035 358.07 184.486 375.511C172.364 378.551 172.363 378.551 170.885 375.307C169.18 371.563 170.354 371.13 199.276 364.822C208.981 362.706 236.981 363.027 243.776 365.332C278.194 377.011 279.518 417.503 247.316 473.593C243.799 479.72 243.799 479.72 259.037 479.227C285.988 478.355 299.7 486.524 303.862 505.933C304.942 510.966 304.942 510.966 336.49 510.966C368.038 510.966 368.038 510.966 367.456 507.384C365.025 492.404 354.677 485.694 333.776 485.547C322.276 485.466 322.276 485.466 321.065 433.466C319.592 370.264 319.875 368.437 332.433 359.897C353.142 345.813 367.242 328.834 372.18 312.034C375.218 301.697 374.734 298.226 364.301 255.466C361.349 243.366 357.242 226.491 355.176 217.966C346.896 183.817 349.585 179.86 388.19 169.396C423.855 159.728 430.959 155.261 437.645 138.298C442.697 125.482 441.829 121.893 432.608 117.466C427.777 115.147 423.896 112.601 423.371 111.408C422.518 109.466 421.827 109.374 411.219 109.78C390.47 110.574 378.011 105.987 361.209 91.3677C342.93 75.4647 327.312 67.5667 306.943 63.9257C298.402 62.3997 297.849 62.7297 300.836 67.5627C303.124 71.2657 303.124 71.2657 300.839 73.1157C297.135 76.1147 297.93 77.1807 278.727 43.4657C272.527 32.5807 265.725 21.9577 259.006 12.6687C255.62 7.98774 255.489 7.91574 253.547 9.66874C240.715 21.2567 231.113 81.0087 239.735 95.6217C241.802 99.1237 241.802 99.1237 239.539 101.012C236.492 103.554 236.264 103.492 233.772 99.4597C231.086 95.1127 230.615 95.4007 227.441 103.329C223.163 114.017 222.304 124.071 224.228 140.966C225.136 148.941 226.349 159.741 226.924 164.966C230.763 199.868 224.245 216.015 193.491 247.784C149.255 293.479 100.88 351.921 80.7673 383.966C58.7523 419.041 54.6753 447.069 67.4023 475.847C69.6563 480.944 69.6913 481.311 68.0313 482.57C64.5673 485.2 63.0873 484.211 60.3843 477.46C47.3503 444.902 51.2253 418.415 74.5603 380.563C93.8973 349.197 145.413 286.822 187.791 243.466C222.601 207.852 224.081 202.352 216.558 136.521C214.588 119.291 217.415 105.106 225.454 91.8747C229.458 85.2837 229.458 85.2837 229.57 72.0547C229.804 44.1997 239.172 12.5417 249.833 3.57074C256.633 -2.15126 260.331 0.694735 274.055 22.2157C281.267 33.5237 280.596 33.1407 283.69 27.7247C287.23 21.5287 295.48 13.2187 299.365 11.9367C306.728 9.50674 309.066 13.0787 315.742 36.9657C317.971 44.9407 320.355 53.4257 321.04 55.8227C322.209 59.9087 322.66 60.3197 328.31 62.4437M374.776 509.486C374.776 491.723 357.942 477.966 336.204 477.966C329.053 477.966 329.053 477.966 328.396 443.216C326.955 366.946 326.106 373.47 338.673 364.249C357.125 350.71 368.339 338.381 374.857 324.466C382.587 307.966 382.501 300.042 374.229 266.253C368.084 241.154 361.962 215.682 359.199 203.713M303.542 21.3517C304.889 24.3087 313.776 55.2117 313.776 56.9397C313.776 57.7677 313.006 57.9807 311.526 57.5607C310.288 57.2107 305.676 56.4307 301.276 55.8287C289.24 54.1827 282.925 43.2307 288.514 33.6957C295.559 21.6747 301.475 16.8147 303.542 21.3517ZM436.915 111.015C439.276 113.065 439.276 113.065 435.776 111.388C431.43 109.306 431.04 108.966 432.999 108.966C433.854 108.966 435.617 109.888 436.915 111.015Z" stroke="black" stroke-width="2" stroke-linejoin="round"/>
</svg>
