<svg xmlns="http://www.w3.org/2000/svg" viewBox="0 0 120 120" fill="none">
  <g stroke="#6f8f7f" stroke-width="1.8" stroke-linecap="round" stroke-linejoin="round">
    <path d="M20 95h57c0-2.9-2.3-5.2-5.2-5.2h-7.6l4.5-6.8c3.7-5.6 1.1-13.1-5.1-15.2-4.8-1.6-10.1.3-12.9 4.5l-2.3 3.6V95H30.2l-1.7-4.9A25.8 25.8 0 0 1 33 64l20.5-22.4a17.7 17.7 0 0 0 4.5-14.6c-.9-5.4 1.8-10.8 6.7-13.2L71 28.3 78 14c2.6 0 4.8 2 5.2 4.6l1.3 8.6c4.5 1.2 8.4 3.9 11.4 7.5 3.8 4.6 9.7 6.6 15.5 5.5l5.9-1.1a7.4 7.4 0 0 1-5.6 8.8L99.6 51a5.5 5.5 0 0 0-4.3 6.5l2.2 9.6c1.1 4.8-.8 9.8-4.8 12.7l-7.5 5.5V95h13.6c0-2.9-2.3-5.2-5.2-5.2"/>
    <path d="M17.8 95c-8.9 0-16-7.2-16-16 0-6.7 2.4-12.2 7.2-16.5 2.3-2.1 3.6-5.1 3.6-8.3v-2.3c5.2 0 10.1 2.3 13.3 6.3 2 2.5 3.1 5.6 3.1 8.8"/>
  </g>
</svg>
